<svg xmlns="http://www.w3.org/2000/svg" width="30" height="25" viewBox="0 0 30 25" fill="none" aria-label="BrainBlend AI">
  <path d="M6.40419 4.22713L6.37605 4.2273C5.18666 4.24236 4.22713 5.21122 4.22713 6.40419C4.22713 7.59715 5.18666 8.56602 6.37605 8.58108L6.40419 8.58125H12.1112C13.4757 8.58125 14.7044 9.40749 15.2191 10.6712C15.7338 11.935 16.9625 12.7612 18.327 12.7612H23.5768C24.7792 12.7612 25.7539 11.7865 25.7539 10.5841C25.7539 9.38179 24.7792 8.40708 23.5768 8.40708V4.67996C26.8376 4.67996 29.481 7.32335 29.481 10.5841C29.481 13.8449 26.8376 16.4883 23.5768 16.4883H18.0582C16.7485 16.4883 15.5879 15.6444 15.1843 14.3984C14.7806 13.1523 13.62 12.3084 12.3103 12.3084H6.40419C3.14339 12.3084 0.5 9.66498 0.5 6.40419C0.5 3.14339 3.14339 0.5 6.40419 0.5V4.22713ZM23.5768 4.67996V8.40708H18.0988C16.7513 8.40708 15.5435 7.57576 15.0624 6.3171C14.5812 5.05845 13.3734 4.22713 12.0259 4.22713H6.40419V0.5H12.1865C13.481 0.5 14.6219 1.34975 14.9927 2.58998C15.3635 3.83021 16.5044 4.67996 17.7989 4.67996H23.5768Z" fill="url(#bb_grad)"/>
  <path d="M6.40419 12.2388L6.37605 12.239C5.18666 12.254 4.22713 13.2229 4.22713 14.4159C4.22713 15.6088 5.18666 16.5777 6.37605 16.5927L6.40419 16.5929H12.1112C13.4757 16.5929 14.7044 17.4192 15.2191 18.6829C15.7338 19.9466 16.9625 20.7729 18.327 20.7729H23.5768C24.7792 20.7729 25.7539 19.7982 25.7539 18.5958C25.7539 17.3935 24.7792 16.4188 23.5768 16.4188V12.6916C26.8376 12.6916 29.481 15.335 29.481 18.5958C29.481 21.8566 26.8376 24.5 23.5768 24.5H18.0582C16.7485 24.5 15.5879 23.656 15.1843 22.41C14.7806 21.164 13.62 20.32 12.3103 20.32H6.40419C3.14339 20.32 0.5 17.6767 0.5 14.4159C0.5 11.1551 3.14339 8.51167 6.40419 8.51167V12.2388ZM23.5768 12.6916V16.4188H18.0988C16.7513 16.4188 15.5435 15.5874 15.0624 14.3288C14.5812 13.0701 13.3734 12.2388 12.0259 12.2388H6.40419V8.51167H12.1865C13.481 8.51167 14.6219 9.36142 14.9927 10.6016C15.3635 11.8419 16.5044 12.6916 17.7989 12.6916H23.5768Z" fill="url(#bb_grad)"/>
  <defs>
    <linearGradient id="bb_grad" x1="29.481" y1="12.5" x2="0.5" y2="10.212" gradientUnits="userSpaceOnUse">
      <stop stop-color="#8333C1"/>
      <stop offset="0.374" stop-color="#8333C1"/>
      <stop offset="0.414" stop-color="#6400B1"/>
      <stop offset="0.47" stop-color="#6400B1"/>
      <stop offset="0.525" stop-color="#8333C1"/>
      <stop offset="1" stop-color="#8333C1"/>
    </linearGradient>
  </defs>
</svg>
